<svg xmlns="http://www.w3.org/2000/svg" viewBox="0 0 144 114">
    <defs>
        <linearGradient id="b" x1="0" x2="1" y1="0" y2="1">
            <stop offset="0%" stop-color="#adddff" />
            <stop offset="100%" stop-color="#89ceff" />
        </linearGradient>
        <linearGradient id="a" x1="0" x2="1" y1="0" y2="1">
            <stop offset="0%" stop-color="#575757" />
            <stop offset="100%" stop-color="#989898" />
        </linearGradient>
    </defs>
    <path fill="url(#a)"
        d="M84.5 46a24.5 24.5 0 1 0 0 21l23 23.5C87 116 55 119 31.5 104c-6.5 7-12.5 9-21.5 9 6-4 12-14 4-27a1 .95 0 0 1 94-63L84.5 46Z" />
    <path fill="url(#b)" d="M84.5 46C56 1-1 57 14 86a1 .95 0 0 1 94-63Z" />
</svg>