<svg width="24" height="24" fill="none" viewBox="0 0 24 24" xmlns="http://www.w3.org/2000/svg">
    <path
        d="M 18.5 20 a 0.5 0.5 0 0 1 -0.5 0.5 h -5.732 A 6.518 6.518 0 0 1 11.19 22 H 18 a 2 2 0 0 0 2 -2 V 9.828 a 2 2 0 0 0 -0.586 -1.414 l -5.829 -5.828 a 0.491 0.491 0 0 0 -0.049 -0.04 a 0.63 0.63 0 0 1 -0.036 -0.03 a 2.072 2.072 0 0 0 -0.219 -0.18 a 0.652 0.652 0 0 0 -0.08 -0.044 l -0.048 -0.024 l -0.05 -0.029 c -0.054 -0.031 -0.109 -0.063 -0.166 -0.087 a 1.977 1.977 0 0 0 -0.624 -0.138 c -0.02 -0.001 -0.04 -0.004 -0.059 -0.007 A 0.605 0.605 0 0 0 12.172 2 H 6 a 2 2 0 0 0 -2 2 v 7.498 a 6.451 6.451 0 0 1 1.5 -0.422 V 4 a 0.5 0.5 0 0 1 0.5 -0.5 h 6 V 8 a 2 2 0 0 0 2 2 h 4.5 v 10 Z m -5 -15.379 L 17.378 8.5 H 14 a 0.5 0.5 0 0 1 -0.5 -0.5 V 4.621 Z M 6.5 23 a 5.5 5.5 0 1 1 0 -11 a 5.5 5.5 0 0 1 0 11 Z m -1.12 -8.354 a 0.5 0.5 0 0 0 0 0.708 l 2.149 2.146 l -2.147 2.146 a 0.5 0.5 0 0 0 0.708 0.708 l 2.5 -2.5 a 0.5 0.5 0 0 0 0 -0.708 l -2.5 -2.5 a 0.5 0.5 0 0 0 -0.708 0 Z"
        fill="#212121" />
</svg>