<svg width="24" height="24" fill="none" viewBox="0 0 24 24" xmlns="http://www.w3.org/2000/svg">
    <path
        d="M 9 8.25 a 0.75 0.75 0 0 0 -0.75 0.75 v 6 c 0 0.414 0.335 0.75 0.75 0.75 h 6 a 0.75 0.75 0 0 0 0.75 -0.75 v -1.739 a 0.75 0.75 0 0 1 1.5 0 v 1.739 a 2.25 2.25 0 0 1 -2.25 2.25 h -6 a 2.25 2.25 0 0 1 -2.25 -2.25 v -6 a 2.25 2.25 0 0 1 2.25 -2.25 h 1.739 a 0.75 0.75 0 0 1 0 1.5 h -1.739 Z m 3 -0.75 a 0.75 0.75 0 0 1 0.75 -0.75 h 3.75 a 0.75 0.75 0 0 1 0.75 0.75 v 3.75 a 0.75 0.75 0 0 1 -1.5 0 v -1.94 l -2.5 2.5 a 0.75 0.75 0 0 1 -1.06 -1.06 l 2.5 -2.5 h -1.94 a 0.75 0.75 0 0 1 -0.75 -0.75 Z M 12 2 c 5.523 0 10 4.477 10 10 s -4.477 10 -10 10 S 2 17.523 2 12 S 6.477 2 12 2 Z m 0 1.5 a 8.5 8.5 0 1 0 0 17 a 8.5 8.5 0 0 0 0 -17 Z"
        fill="#fff" />
</svg>