<svg width="24" height="24" fill="none" viewBox="0 0 24 24" xmlns="http://www.w3.org/2000/svg">
    <path
        d="M 15 5.5 l 2.495 2.494 a 0.75 0.75 0 0 1 0.073 0.976 l -0.072 0.085 l -3.495 3.504 a 0.75 0.75 0 0 1 -1.135 -0.975 l 0.073 -0.084 l 2.217 -2.223 h -6 a 0.75 0.75 0 0 1 -0.743 -0.647 l -0.007 -0.101 a 0.75 0.75 0 0 1 0.648 -0.743 l 0.102 -0.007 l 6 -0.001 l -2.218 -2.217 a 0.75 0.75 0 0 1 -0.072 -0.976 l 0.072 -0.084 a 0.75 0.75 0 0 1 0.977 -0.073 l 0.084 0.073 l 3.495 3.494 l -3.495 -3.494 Z M 15.55 15.3 l 0.006 0.1 a 0.75 0.75 0 0 1 -0.648 0.744 l -0.102 0.007 l -6 -0.001 l 2.22 2.22 a 0.75 0.75 0 0 1 0.074 0.976 l -0.073 0.084 a 0.75 0.75 0 0 1 -0.976 0.073 l -0.085 -0.072 l -3.5 -3.497 a 0.75 0.75 0 0 1 -0.073 -0.976 l 0.073 -0.084 l 3.5 -3.504 a 0.75 0.75 0 0 1 1.134 0.976 l -0.073 0.084 l -2.218 2.22 h 6 a 0.75 0.75 0 0 1 0.743 0.65 l 0.006 0.1 l -0.006 -0.1 Z M 12 2 c 5.523 0 10 4.477 10 10 s -4.477 10 -10 10 S 2 17.523 2 12 S 6.477 2 12 2 Z m 0 1.5 a 8.5 8.5 0 1 0 0 17 a 8.5 8.5 0 0 0 0 -17 Z"
        fill="#212121" />
</svg>