<svg xmlns="http://www.w3.org/2000/svg" viewBox="-200 -100 1300 300">
    <defs>
        <linearGradient id="b" x1="0" x2="1" y1="0" y2="1">
            <stop offset="0%" stop-color="#adddff" />
            <stop offset="100%" stop-color="#89ceff" />
        </linearGradient>
        <linearGradient id="a" x1="0" x2="1" y1="0" y2="1">
            <stop offset="0%" stop-color="#575757" />
            <stop offset="100%" stop-color="#989898" />
        </linearGradient>
        <linearGradient id="c" x1="0" x2="1" y1="0" y2="0">
            <stop offset="0%" stop-color="#3786c4" />
            <stop offset="100%" stop-color="rgba(55,135,196,0)" />
        </linearGradient>
    </defs>

    <!-- TODO(nerix): apply the transforms to save space (100% svgomg will be updated by then) -->

    <rect width="1200" height="1" x="-120" y="-23" fill="url(#c)" />
    <rect width="1200" height="1" x="-120" y="-3" fill="url(#c)" />
    <rect width="1200" height="1" x="-120" y="13" fill="url(#c)" />
    <rect width="1200" height="1" x="-120" y="33" fill="url(#c)" />
    <rect width="1200" height="1" x="-120" y="53" fill="url(#c)" />
    <rect width="1200" height="1" x="-120" y="73" fill="url(#c)" />
    <rect width="1200" height="1" x="-120" y="93" fill="url(#c)" />
    <rect width="1200" height="1" x="-120" y="113" fill="url(#c)" />
    <rect width="1200" height="1" x="-120" y="133" fill="url(#c)" />
    <g transform="translate(-200,-76) scale(2.3)">
        <path fill="url(#a)"
            d="M 84.5 46 a 24.5 24.5 0 1 0 0 21 l 23 23.5 c -20.5 25.5 -52.5 28.5 -76 13.5 c -6.5 7 -12.5 9 -21.5 9 c 6 -4 12 -14 4 -27 a 1 0.95 0 0 1 94 -63 l -23.5 23 z" />
        <path fill="url(#b)" d="M84.5 46C56 1-1 57 14 86a1 .95 0 0 1 94-63Z" />
    </g>
    <path fill="#eee"
        d="M 173.53 62.06 c -2.77 20.09 -15.42 34.28 -36.25 34.28 c -21.93 0 -37.28 -17.77 -37.28 -42.47 c 0 -20 10.73 -43.87 38.78 -43.87 c 21.82 0 32.55 16.51 32.9 26.67 h -2.31 c -1 -11.89 -12.58 -24.36 -30.59 -24.36 c -27.12 0 -36.47 24.52 -36.47 41.52 c 0 21 12.69 40.17 35 40.17 c 19.86 0 31.4 -13.74 33.94 -32 z m 18.82 -9.46 v 41.78 h -2.31 v -82.42 h 2.31 v 38.33 h 57.76 v -38.33 h 2.31 v 82.42 h -2.31 v -41.78 z m 86.11 14.66 l -11 27.12 h -2.65 l 33.48 -82.42 h 3 l 32.55 82.42 h -2.54 l -10.85 -27.12 z m 41.09 -2.31 l -19.62 -50.68 h -0.23 l -20.32 50.68 z m 10.17 -50.68 v -2.31 h 61.64 v 2.31 h -29.67 v 80.11 h -2.31 v -80.11 z m 65.33 0 v -2.31 h 61.64 v 2.31 h -29.66 v 80.11 h -2.31 v -80.11 z m 75.84 77.8 h 52.87 v 2.31 h -55.17 v -82.42 h 54.71 v 2.31 h -52.41 v 36 h 49.29 v 2.31 h -49.29 z m 69.61 2.31 h -2.31 v -82.42 h 33.71 c 17 0 24.82 6.93 25.16 21.13 c 0.23 10.85 -6.11 18.7 -17.66 21.24 v 0.23 c 14 1.84 16.28 9.69 16.28 22.85 c 0 5 0.46 14.66 2 17 h -2.57 c -1.38 -3.46 -1.73 -12 -1.73 -17.31 c 0 -13.51 -2.89 -21.36 -21.82 -21.36 h -31.06 z m 0 -41 h 30.82 c 12.12 0 23.55 -6.11 23.43 -20.54 c -0.11 -11.66 -6.57 -18.59 -22.27 -18.59 h -32 z m 75.84 -41.42 h 2.31 v 82.42 h -2.31 z m 22.4 0 h 3.46 l 56.33 79.54 h 0.23 v -79.54 h 2.35 v 82.42 h -3.5 l -56.33 -79.55 h -0.24 v 79.53 h -2.3 z m 117.86 -1.96 c 24.7 0 38 19.74 38 43.17 s -13.27 43.17 -38 43.17 s -38 -19.73 -38 -43.17 s 13.29 -43.17 38 -43.17 z m 0 84 c 22.16 0 35.43 -17.09 35.66 -40.87 c -0.23 -23.78 -13.5 -40.86 -35.66 -40.86 s -35.44 17.08 -35.67 40.86 c 0.23 23.82 13.5 40.91 35.67 40.91 z" />
</svg>
