<svg width="60" height="60" fill="none" viewBox="0 0 43 43" xmlns="http://www.w3.org/2000/svg">
    <path
        d="M 36.75 3 a 3.25 3.25 90 0 1 3.25 3.25 v 30.5 a 3.25 3.25 90 0 1 -3.25 3.25 h -11.5 a 3.25 3.25 90 0 1 -3.25 -3.25 v -30.5 a 3.25 3.25 90 0 1 3.25 -3.25 h 11.5 z m 1.75 3.25 a 1.75 1.75 90 0 0 -1.75 -1.75 h -11.5 c -0.966 0 -1.75 0.784 -1.75 1.75 v 30.5 a 1.75 1.75 90 0 0 1.75 1.75 h 11.5 a 1.75 1.75 90 0 0 1.75 -1.75 v -30.5 Z M 17.75 3 a 3.25 3.25 90 0 1 3.25 3.25 v 30.5 a 3.25 3.25 90 0 1 -3.25 3.25 h -11.5 a 3.25 3.25 90 0 1 -3.25 -3.25 v -30.5 a 3.25 3.25 90 0 1 3.25 -3.25 h 11.5 z m 1.75 3.25 a 1.75 1.75 90 0 0 -1.75 -1.75 h -11.5 c -0.966 0 -1.75 0.784 -1.75 1.75 v 30.5 a 1.75 1.75 90 0 0 1.75 1.75 h 11.5 a 1.75 1.75 90 0 0 1.75 -1.75 v -30.5 Z M 17 21.5 a 0.75 0.75 90 0 1 -0.75 0.75 h -3.5 v 3.5 a 0.75 0.75 90 0 1 -1.5 0 v -3.5 h -3.5 a 0.75 0.75 90 0 1 -0 -1.5 h 3.5 v -3.5 a 0.75 0.75 90 0 1 1.5 -0 v 3.5 h 3.5 a 0.75 0.75 90 0 1 0.75 0.75 Z"
        fill="#0094ff" />
</svg>