<svg xmlns="http://www.w3.org/2000/svg" width="40" height="40" baseProfile="tiny" version="1.2" viewBox="0 0 30 30">
    <g fill="none" fill-rule="evenodd" stroke="#000" stroke-linecap="square" stroke-linejoin="bevel">
        <path stroke="#999" opacity=".7"
            d="M 23.828 16.758 A 9.045 9.045 0 0 0 24 15 l -3.115 -1.174 a 5.958 5.958 0 0 0 -0.34 -1.124 l 1.939 -2.703 a 9.049 9.049 0 0 0 -1.12 -1.363 l -3.03 1.375 a 5.988 5.988 0 0 0 -1.037 -0.555 l -0.54 -3.284 A 9.043 9.043 0 0 0 15 6 l -1.174 3.115 c -0.39 0.077 -0.766 0.192 -1.124 0.34 L 9.999 7.517 c -0.49 0.329 -0.947 0.704 -1.363 1.12 l 1.375 3.03 a 5.986 5.986 0 0 0 -0.555 1.037 l -3.284 0.54 A 9.043 9.043 0 0 0 6 15 l 3.115 1.174 c 0.077 0.39 0.192 0.766 0.34 1.124 l -1.939 2.703 c 0.329 0.49 0.704 0.947 1.12 1.363 l 3.03 -1.375 a 5.98 5.98 0 0 0 1.037 0.555 l 0.54 3.284 A 9.045 9.045 0 0 0 15 24 l 1.174 -3.115 c 0.39 -0.077 0.766 -0.192 1.124 -0.34 l 2.703 1.939 a 9.05 9.05 0 0 0 1.363 -1.12 l -1.375 -3.03 c 0.218 -0.325 0.404 -0.671 0.555 -1.037 M 23.828 16.758 A 9.045 9.045 0 0 0 24 15 l -3.115 -1.174 a 5.958 5.958 0 0 0 -0.34 -1.124 l 1.939 -2.703 a 9.049 9.049 0 0 0 -1.12 -1.363 l -3.03 1.375 a 5.988 5.988 0 0 0 -1.037 -0.555 l -0.54 -3.284 A 9.043 9.043 0 0 0 15 6 l -1.174 3.115 c -0.39 0.077 -0.766 0.192 -1.124 0.34 L 9.999 7.517 c -0.49 0.329 -0.947 0.704 -1.363 1.12 l 1.375 3.03 a 5.986 5.986 0 0 0 -0.555 1.037 l -3.284 0.54 A 9.043 9.043 0 0 0 6 15 l 3.115 1.174 c 0.077 0.39 0.192 0.766 0.34 1.124 l -1.939 2.703 c 0.329 0.49 0.704 0.947 1.12 1.363 l 3.03 -1.375 a 5.98 5.98 0 0 0 1.037 0.555 l 0.54 3.284 A 9.045 9.045 0 0 0 15 24 l 1.174 -3.115 c 0.39 -0.077 0.766 -0.192 1.124 -0.34 l 2.703 1.939 a 9.05 9.05 0 0 0 1.363 -1.12 l -1.375 -3.03 c 0.218 -0.325 0.404 -0.671 0.555 -1.037 Z" />
        <path fill="#999" stroke="none" opacity=".7"
            d="M23.828 16.758A9.045 9.045 0 0 0 24 15l-3.115-1.174a5.958 5.958 0 0 0-.34-1.124l1.939-2.703a9.049 9.049 0 0 0-1.12-1.363l-3.03 1.375a5.988 5.988 0 0 0-1.037-.555l-.54-3.284A9.043 9.043 0 0 0 15 6l-1.174 3.115c-.39.077-.766.192-1.124.34L9.999 7.517c-.49.329-.947.704-1.363 1.12l1.375 3.03a5.986 5.986 0 0 0-.555 1.037l-3.284.54A9.043 9.043 0 0 0 6 15l3.115 1.174c.077.39.192.766.34 1.124l-1.939 2.703c.329.49.704.947 1.12 1.363l3.03-1.375a5.98 5.98 0 0 0 1.037.555l.54 3.284A9.045 9.045 0 0 0 15 24l1.174-3.115c.39-.077.766-.192 1.124-.34l2.703 1.939a9.05 9.05 0 0 0 1.363-1.12l-1.375-3.03c.218-.325.404-.671.555-1.037 Z" />
        <circle cx="15" cy="15" r="3" fill="#111" opacity=".7" />
    </g>
</svg>